<svg xmlns="http://www.w3.org/2000/svg" width="1280" height="800" viewBox="0 0 1280 800" font-family="-apple-system,'Segoe UI',system-ui,sans-serif">

  <!-- Background -->
  <rect width="1280" height="800" fill="#0d1117"/>

  <!-- Sidebar -->
  <rect width="220" height="800" fill="#161b22"/>
  <line x1="220" y1="0" x2="220" y2="800" stroke="#30363d" stroke-width="1"/>
  <text x="16" y="32" fill="#58a6ff" font-size="17" font-weight="700">⚔ Kestrel</text>
  <text x="16" y="48" fill="#8b949e" font-size="10">Security Operations Platform</text>
  <line x1="0" y1="56" x2="220" y2="56" stroke="#30363d" stroke-width="1"/>
  <text x="16" y="84" fill="#e6edf3" font-size="13">⬡  Dashboard</text>
  <text x="16" y="110" fill="#e6edf3" font-size="13">📁 Projects</text>
  <text x="16" y="136" fill="#e6edf3" font-size="13">🤖 Agent</text>
  <!-- Audit Logs active -->
  <rect x="0" y="148" width="220" height="32" fill="#21262d"/>
  <rect x="0" y="148" width="3" height="32" fill="#58a6ff"/>
  <text x="16" y="168" fill="#58a6ff" font-size="13">📋 Audit Logs</text>
  <text x="16" y="192" fill="#e6edf3" font-size="13">👤 Users</text>
  <text x="16" y="218" fill="#e6edf3" font-size="13">🔑 Roles</text>
  <text x="16" y="244" fill="#e6edf3" font-size="13">⚙  Settings</text>
  <line x1="0" y1="752" x2="220" y2="752" stroke="#30363d" stroke-width="1"/>
  <text x="16" y="770" fill="#8b949e" font-size="12">admin</text>

  <!-- Page header -->
  <text x="244" y="38" fill="#e6edf3" font-size="20" font-weight="700">Audit Log</text>
  <!-- Filter bar -->
  <rect x="244" y="52" width="200" height="30" rx="6" fill="#21262d" stroke="#30363d" stroke-width="1"/>
  <text x="258" y="71" fill="#8b949e" font-size="12">🔍 Search events...</text>
  <rect x="456" y="52" width="130" height="30" rx="6" fill="#21262d" stroke="#30363d" stroke-width="1"/>
  <text x="468" y="71" fill="#8b949e" font-size="12">Category: all</text>
  <rect x="598" y="52" width="130" height="30" rx="6" fill="#21262d" stroke="#30363d" stroke-width="1"/>
  <text x="610" y="71" fill="#8b949e" font-size="12">User: all</text>
  <!-- Append-only notice -->
  <rect x="920" y="52" width="340" height="30" rx="6" fill="#3fb95022" stroke="#3fb950" stroke-width="1"/>
  <text x="1090" y="71" fill="#3fb950" font-size="12" text-anchor="middle">🔒 Append-only — records cannot be modified or deleted</text>

  <!-- Table -->
  <rect x="236" y="96" width="1028" height="664" rx="6" fill="#161b22" stroke="#30363d" stroke-width="1"/>

  <!-- Table header -->
  <rect x="236" y="96" width="1028" height="36" rx="6" fill="#21262d"/>
  <line x1="236" y1="132" x2="1264" y2="132" stroke="#30363d" stroke-width="1"/>
  <text x="252" y="119" fill="#8b949e" font-size="11" font-weight="500" letter-spacing="0.05em">TIMESTAMP</text>
  <text x="416" y="119" fill="#8b949e" font-size="11" font-weight="500">USER</text>
  <text x="540" y="119" fill="#8b949e" font-size="11" font-weight="500">CATEGORY</text>
  <text x="680" y="119" fill="#8b949e" font-size="11" font-weight="500">ACTION</text>
  <text x="920" y="119" fill="#8b949e" font-size="11" font-weight="500">DETAIL</text>
  <text x="1190" y="119" fill="#8b949e" font-size="11" font-weight="500">IP</text>

  <!-- Row 1 — tool_execute -->
  <line x1="236" y1="172" x2="1264" y2="172" stroke="#30363d" stroke-width="1"/>
  <text x="252" y="157" fill="#8b949e" font-size="12">2026-10-08 19:14:22</text>
  <text x="416" y="157" fill="#e6edf3" font-size="12">operator1</text>
  <rect x="540" y="144" width="96" height="18" rx="9" fill="#58a6ff22"/>
  <text x="588" y="157" fill="#58a6ff" font-size="11" font-weight="600" text-anchor="middle">tool_execute</text>
  <text x="680" y="157" fill="#e6edf3" font-size="12">tool_run_completed</text>
  <text x="920" y="157" fill="#8b949e" font-size="12">port_scan on 11 hosts — 84 open ports found</text>
  <text x="1190" y="157" fill="#8b949e" font-size="12">10.0.0.4</text>

  <!-- Row 2 — hitl -->
  <line x1="236" y1="212" x2="1264" y2="212" stroke="#30363d" stroke-width="1"/>
  <text x="252" y="197" fill="#8b949e" font-size="12">2026-10-08 19:11:05</text>
  <text x="416" y="197" fill="#e6edf3" font-size="12">admin</text>
  <rect x="540" y="184" width="60" height="18" rx="9" fill="#d2992222"/>
  <text x="570" y="197" fill="#d29922" font-size="11" font-weight="600" text-anchor="middle">hitl</text>
  <text x="680" y="197" fill="#e6edf3" font-size="12">approval_granted</text>
  <text x="920" y="197" fill="#8b949e" font-size="12">Approved port_scan — operator1 request #48</text>
  <text x="1190" y="197" fill="#8b949e" font-size="12">10.0.0.1</text>

  <!-- Row 3 — tool_execute (blocked) -->
  <line x1="236" y1="252" x2="1264" y2="252" stroke="#30363d" stroke-width="1"/>
  <text x="252" y="237" fill="#8b949e" font-size="12">2026-10-08 19:10:48</text>
  <text x="416" y="237" fill="#e6edf3" font-size="12">operator1</text>
  <rect x="540" y="224" width="96" height="18" rx="9" fill="#58a6ff22"/>
  <text x="588" y="237" fill="#58a6ff" font-size="11" font-weight="600" text-anchor="middle">tool_execute</text>
  <text x="680" y="237" fill="#e6edf3" font-size="12">tool_run_blocked</text>
  <text x="920" y="237" fill="#f85149" font-size="12">port_scan blocked — awaiting HITL approval</text>
  <text x="1190" y="237" fill="#8b949e" font-size="12">10.0.0.4</text>

  <!-- Row 4 — auth -->
  <line x1="236" y1="292" x2="1264" y2="292" stroke="#30363d" stroke-width="1"/>
  <text x="252" y="277" fill="#8b949e" font-size="12">2026-10-08 19:08:31</text>
  <text x="416" y="277" fill="#e6edf3" font-size="12">analyst2</text>
  <rect x="540" y="264" width="50" height="18" rx="9" fill="#3fb95022"/>
  <text x="565" y="277" fill="#3fb950" font-size="11" font-weight="600" text-anchor="middle">auth</text>
  <text x="680" y="277" fill="#e6edf3" font-size="12">login_success</text>
  <text x="920" y="277" fill="#8b949e" font-size="12">Session started — analyst2</text>
  <text x="1190" y="277" fill="#8b949e" font-size="12">10.0.0.7</text>

  <!-- Row 5 — agent -->
  <line x1="236" y1="332" x2="1264" y2="332" stroke="#30363d" stroke-width="1"/>
  <text x="252" y="317" fill="#8b949e" font-size="12">2026-10-08 19:07:12</text>
  <text x="416" y="317" fill="#e6edf3" font-size="12">operator1</text>
  <rect x="540" y="304" width="56" height="18" rx="9" fill="#8b5cf622"/>
  <text x="568" y="317" fill="#8b5cf6" font-size="11" font-weight="600" text-anchor="middle">agent</text>
  <text x="680" y="317" fill="#e6edf3" font-size="12">agent_run_started</text>
  <text x="920" y="317" fill="#8b949e" font-size="12">plan-execute mode — task: recon target.example.com</text>
  <text x="1190" y="317" fill="#8b949e" font-size="12">10.0.0.4</text>

  <!-- Row 6 — config -->
  <line x1="236" y1="372" x2="1264" y2="372" stroke="#30363d" stroke-width="1"/>
  <text x="252" y="357" fill="#8b949e" font-size="12">2026-10-08 18:55:03</text>
  <text x="416" y="357" fill="#e6edf3" font-size="12">admin</text>
  <rect x="540" y="344" width="60" height="18" rx="9" fill="#8b949e22"/>
  <text x="570" y="357" fill="#8b949e" font-size="11" font-weight="600" text-anchor="middle">config</text>
  <text x="680" y="357" fill="#e6edf3" font-size="12">tool_guard_updated</text>
  <text x="920" y="357" fill="#8b949e" font-size="12">Added block rule: pattern "rm -rf" — category exec</text>
  <text x="1190" y="357" fill="#8b949e" font-size="12">10.0.0.1</text>

  <!-- Row 7 — auth fail -->
  <line x1="236" y1="412" x2="1264" y2="412" stroke="#30363d" stroke-width="1"/>
  <text x="252" y="397" fill="#8b949e" font-size="12">2026-10-08 18:42:19</text>
  <text x="416" y="397" fill="#e6edf3" font-size="12">unknown</text>
  <rect x="540" y="384" width="50" height="18" rx="9" fill="#f8514922"/>
  <text x="565" y="397" fill="#f85149" font-size="11" font-weight="600" text-anchor="middle">auth</text>
  <text x="680" y="397" fill="#f85149" font-size="12">login_failed</text>
  <text x="920" y="397" fill="#8b949e" font-size="12">Invalid credentials for "root" — throttle active</text>
  <text x="1190" y="397" fill="#8b949e" font-size="12">192.168.1.99</text>

  <!-- Row 8 — rbac -->
  <line x1="236" y1="452" x2="1264" y2="452" stroke="#30363d" stroke-width="1"/>
  <text x="252" y="437" fill="#8b949e" font-size="12">2026-10-08 18:30:00</text>
  <text x="416" y="437" fill="#e6edf3" font-size="12">admin</text>
  <rect x="540" y="424" width="50" height="18" rx="9" fill="#58a6ff22"/>
  <text x="565" y="437" fill="#58a6ff" font-size="11" font-weight="600" text-anchor="middle">rbac</text>
  <text x="680" y="437" fill="#e6edf3" font-size="12">role_assigned</text>
  <text x="920" y="437" fill="#8b949e" font-size="12">analyst role granted to analyst2</text>
  <text x="1190" y="437" fill="#8b949e" font-size="12">10.0.0.1</text>

  <!-- Row 9 — system -->
  <line x1="236" y1="492" x2="1264" y2="492" stroke="#30363d" stroke-width="1"/>
  <text x="252" y="477" fill="#8b949e" font-size="12">2026-10-08 17:00:01</text>
  <text x="416" y="477" fill="#8b949e" font-size="12">system</text>
  <rect x="540" y="464" width="60" height="18" rx="9" fill="#8b949e22"/>
  <text x="570" y="477" fill="#8b949e" font-size="11" font-weight="600" text-anchor="middle">system</text>
  <text x="680" y="477" fill="#e6edf3" font-size="12">server_started</text>
  <text x="920" y="477" fill="#8b949e" font-size="12">Kestrel v0.1.0 — HTTP :8080 — 3 roles seeded</text>
  <text x="1190" y="477" fill="#8b949e" font-size="12">127.0.0.1</text>

  <!-- Pagination -->
  <text x="252" y="738" fill="#8b949e" font-size="12">Showing 9 of 1,284 events</text>
  <rect x="1100" y="720" width="72" height="28" rx="6" fill="#21262d" stroke="#30363d" stroke-width="1"/>
  <text x="1136" y="738" fill="#e6edf3" font-size="12" text-anchor="middle">← Prev</text>
  <rect x="1182" y="720" width="72" height="28" rx="6" fill="#21262d" stroke="#30363d" stroke-width="1"/>
  <text x="1218" y="738" fill="#e6edf3" font-size="12" text-anchor="middle">Next →</text>
</svg>
