<svg xmlns="http://www.w3.org/2000/svg" width="1280" height="800" viewBox="0 0 1280 800" font-family="-apple-system,'Segoe UI',system-ui,sans-serif">
  <defs>
    <linearGradient id="accentGrad" x1="0%" y1="0%" x2="100%" y2="100%">
      <stop offset="0%" stop-color="#58a6ff" stop-opacity="0.15"/>
      <stop offset="100%" stop-color="#58a6ff" stop-opacity="0.05"/>
    </linearGradient>
  </defs>

  <!-- App background -->
  <rect width="1280" height="800" fill="#0d1117"/>

  <!-- ── Sidebar ─────────────────────────────────────────────────────────── -->
  <rect width="220" height="800" fill="#161b22"/>
  <line x1="220" y1="0" x2="220" y2="800" stroke="#30363d" stroke-width="1"/>

  <!-- Sidebar brand -->
  <rect x="0" y="0" width="220" height="56" fill="#161b22"/>
  <line x1="0" y1="56" x2="220" y2="56" stroke="#30363d" stroke-width="1"/>
  <text x="16" y="32" fill="#58a6ff" font-size="17" font-weight="700">⚔ Kestrel</text>
  <text x="16" y="48" fill="#8b949e" font-size="10">Security Operations Platform</text>

  <!-- Nav items -->
  <!-- Dashboard (active) -->
  <rect x="0" y="64" width="220" height="32" fill="#21262d"/>
  <rect x="0" y="64" width="3" height="32" fill="#58a6ff"/>
  <text x="16" y="84" fill="#58a6ff" font-size="13">⬡  Dashboard</text>
  <!-- Others -->
  <text x="16" y="114" fill="#e6edf3" font-size="13">📁 Projects</text>
  <text x="16" y="140" fill="#e6edf3" font-size="13">🤖 Agent</text>
  <text x="16" y="166" fill="#e6edf3" font-size="13">🎯 Skills</text>
  <text x="16" y="192" fill="#e6edf3" font-size="13">🧰 Tools Catalog</text>
  <text x="16" y="218" fill="#e6edf3" font-size="13">🗂  Sessions</text>
  <text x="16" y="244" fill="#e6edf3" font-size="13">🔧 Tool History</text>
  <text x="16" y="270" fill="#e6edf3" font-size="13">💬 Conversations</text>
  <text x="16" y="296" fill="#e6edf3" font-size="13">⚙  Batch Tasks</text>
  <text x="16" y="322" fill="#e6edf3" font-size="13">🔀 Workflows</text>
  <text x="16" y="348" fill="#e6edf3" font-size="13">✋ Approvals</text>
  <text x="16" y="374" fill="#e6edf3" font-size="13">📦 Assets</text>
  <text x="16" y="400" fill="#e6edf3" font-size="13">🛡  Vulnerabilities</text>
  <text x="16" y="426" fill="#e6edf3" font-size="13">📚 Knowledge</text>
  <text x="16" y="452" fill="#e6edf3" font-size="13">📋 Audit Logs</text>
  <text x="16" y="478" fill="#e6edf3" font-size="13">👤 Users</text>
  <text x="16" y="504" fill="#e6edf3" font-size="13">🔑 Roles</text>
  <text x="16" y="530" fill="#e6edf3" font-size="13">⚙  Settings</text>

  <!-- Sidebar footer -->
  <line x1="0" y1="752" x2="220" y2="752" stroke="#30363d" stroke-width="1"/>
  <text x="16" y="770" fill="#8b949e" font-size="12">admin</text>
  <rect x="16" y="778" width="188" height="26" rx="6" fill="#21262d" stroke="#30363d" stroke-width="1"/>
  <text x="110" y="796" fill="#e6edf3" font-size="12" text-anchor="middle">Sign out</text>

  <!-- ── Main content ────────────────────────────────────────────────────── -->
  <!-- Page header -->
  <text x="244" y="48" fill="#e6edf3" font-size="20" font-weight="700">Dashboard</text>

  <!-- ── Stat cards ─────────────────────────────────────────────────────── -->
  <!-- Projects -->
  <rect x="236" y="64" width="148" height="86" rx="6" fill="#161b22" stroke="#30363d" stroke-width="1"/>
  <text x="310" y="112" fill="#58a6ff" font-size="32" font-weight="700" text-anchor="middle">12</text>
  <text x="310" y="133" fill="#8b949e" font-size="12" text-anchor="middle">Projects</text>
  <!-- Agent Sessions -->
  <rect x="396" y="64" width="148" height="86" rx="6" fill="#161b22" stroke="#30363d" stroke-width="1"/>
  <text x="470" y="112" fill="#8b5cf6" font-size="32" font-weight="700" text-anchor="middle">47</text>
  <text x="470" y="133" fill="#8b949e" font-size="12" text-anchor="middle">Agent Sessions</text>
  <!-- Tool Executions -->
  <rect x="556" y="64" width="148" height="86" rx="6" fill="#161b22" stroke="#30363d" stroke-width="1"/>
  <text x="630" y="112" fill="#e6edf3" font-size="32" font-weight="700" text-anchor="middle">284</text>
  <text x="630" y="133" fill="#8b949e" font-size="12" text-anchor="middle">Tool Executions</text>
  <!-- Assets -->
  <rect x="716" y="64" width="148" height="86" rx="6" fill="#161b22" stroke="#30363d" stroke-width="1"/>
  <text x="790" y="112" fill="#3fb950" font-size="32" font-weight="700" text-anchor="middle">156</text>
  <text x="790" y="133" fill="#8b949e" font-size="12" text-anchor="middle">Assets</text>
  <!-- Vulnerabilities -->
  <rect x="876" y="64" width="148" height="86" rx="6" fill="#161b22" stroke="#30363d" stroke-width="1"/>
  <text x="950" y="112" fill="#f85149" font-size="32" font-weight="700" text-anchor="middle">23</text>
  <text x="950" y="133" fill="#8b949e" font-size="12" text-anchor="middle">Vulnerabilities</text>
  <!-- Tools Available -->
  <rect x="1036" y="64" width="148" height="86" rx="6" fill="#161b22" stroke="#30363d" stroke-width="1"/>
  <text x="1110" y="112" fill="#58a6ff" font-size="32" font-weight="700" text-anchor="middle">7</text>
  <text x="1110" y="133" fill="#8b949e" font-size="12" text-anchor="middle">Tools Available</text>

  <!-- Alert row -->
  <rect x="236" y="162" width="180" height="70" rx="6" fill="#161b22" stroke="#d29922" stroke-width="1"/>
  <text x="326" y="202" fill="#d29922" font-size="28" font-weight="700" text-anchor="middle">3</text>
  <text x="326" y="222" fill="#8b949e" font-size="12" text-anchor="middle">Pending Approvals</text>
  <rect x="428" y="162" width="180" height="70" rx="6" fill="#161b22" stroke="#f85149" stroke-width="1"/>
  <text x="518" y="202" fill="#f85149" font-size="28" font-weight="700" text-anchor="middle">5</text>
  <text x="518" y="222" fill="#8b949e" font-size="12" text-anchor="middle">Critical (open)</text>

  <!-- ── Tool trend card ─────────────────────────────────────────────────── -->
  <rect x="236" y="248" width="490" height="120" rx="6" fill="#161b22" stroke="#30363d" stroke-width="1"/>
  <text x="252" y="270" fill="#e6edf3" font-size="13" font-weight="600">Tool Executions — last 7 days</text>
  <!-- Bars -->
  <rect x="258" y="318" width="44" height="28" rx="2" fill="#58a6ff" opacity="0.8"/>
  <rect x="314" y="306" width="44" height="40" rx="2" fill="#58a6ff" opacity="0.8"/>
  <rect x="370" y="296" width="44" height="50" rx="2" fill="#58a6ff" opacity="0.8"/>
  <rect x="426" y="312" width="44" height="34" rx="2" fill="#58a6ff" opacity="0.8"/>
  <rect x="482" y="290" width="44" height="56" rx="2" fill="#58a6ff" opacity="0.8"/>
  <rect x="538" y="300" width="44" height="46" rx="2" fill="#58a6ff" opacity="0.8"/>
  <rect x="594" y="286" width="44" height="60" rx="2" fill="#58a6ff" opacity="0.8"/>
  <text x="280" y="356" fill="#8b949e" font-size="9" text-anchor="middle" transform="rotate(-45 280 356)">10-02</text>
  <text x="336" y="356" fill="#8b949e" font-size="9" text-anchor="middle" transform="rotate(-45 336 356)">10-03</text>
  <text x="392" y="356" fill="#8b949e" font-size="9" text-anchor="middle" transform="rotate(-45 392 356)">10-04</text>
  <text x="448" y="356" fill="#8b949e" font-size="9" text-anchor="middle" transform="rotate(-45 448 356)">10-05</text>
  <text x="504" y="356" fill="#8b949e" font-size="9" text-anchor="middle" transform="rotate(-45 504 356)">10-06</text>
  <text x="560" y="356" fill="#8b949e" font-size="9" text-anchor="middle" transform="rotate(-45 560 356)">10-07</text>
  <text x="616" y="356" fill="#8b949e" font-size="9" text-anchor="middle" transform="rotate(-45 616 356)">10-08</text>

  <!-- ── Platform status card ────────────────────────────────────────────── -->
  <rect x="738" y="248" width="446" height="120" rx="6" fill="#161b22" stroke="#30363d" stroke-width="1"/>
  <text x="754" y="270" fill="#e6edf3" font-size="13" font-weight="600">Platform Status</text>
  <!-- Table rows -->
  <text x="754" y="296" fill="#8b949e" font-size="13">Version</text>
  <text x="900" y="296" fill="#e6edf3" font-size="13">v0.1.0</text>
  <line x1="738" y1="304" x2="1184" y2="304" stroke="#30363d" stroke-width="1"/>
  <text x="754" y="323" fill="#8b949e" font-size="13">Status</text>
  <rect x="896" y="311" width="56" height="18" rx="9" fill="#58a6ff22"/>
  <text x="924" y="324" fill="#58a6ff" font-size="11" font-weight="600" text-anchor="middle">healthy</text>
  <line x1="738" y1="332" x2="1184" y2="332" stroke="#30363d" stroke-width="1"/>
  <text x="754" y="351" fill="#8b949e" font-size="13">Agent Modes</text>
  <text x="900" y="351" fill="#e6edf3" font-size="12">single, plan-execute, supervisor</text>
  <line x1="738" y1="358" x2="1184" y2="358" stroke="#30363d" stroke-width="1"/>

  <!-- ── Recon tools card ────────────────────────────────────────────────── -->
  <rect x="236" y="382" width="948" height="80" rx="6" fill="#161b22" stroke="#30363d" stroke-width="1"/>
  <text x="252" y="404" fill="#e6edf3" font-size="13" font-weight="600">Available Recon Tools</text>
  <!-- Tool chips -->
  <rect x="252" y="412" width="120" height="24" rx="12" fill="#21262d" stroke="#30363d" stroke-width="1"/>
  <text x="312" y="428" fill="#e6edf3" font-size="12" text-anchor="middle">subdomain_enum</text>
  <rect x="382" y="412" width="88" height="24" rx="12" fill="#21262d" stroke="#30363d" stroke-width="1"/>
  <text x="426" y="428" fill="#e6edf3" font-size="12" text-anchor="middle">http_probe</text>
  <rect x="480" y="412" width="84" height="24" rx="12" fill="#21262d" stroke="#30363d" stroke-width="1"/>
  <text x="522" y="428" fill="#e6edf3" font-size="12" text-anchor="middle">dns_lookup</text>
  <rect x="574" y="412" width="102" height="24" rx="12" fill="#21262d" stroke="#30363d" stroke-width="1"/>
  <text x="625" y="428" fill="#e6edf3" font-size="12" text-anchor="middle">whois_lookup</text>
  <rect x="686" y="412" width="112" height="24" rx="12" fill="#21262d" stroke="#30363d" stroke-width="1"/>
  <text x="742" y="428" fill="#e6edf3" font-size="12" text-anchor="middle">ssl_cert_check</text>
  <rect x="808" y="412" width="118" height="24" rx="12" fill="#21262d" stroke="#30363d" stroke-width="1"/>
  <text x="867" y="428" fill="#e6edf3" font-size="12" text-anchor="middle">tech_fingerprint</text>
  <rect x="936" y="412" width="82" height="24" rx="12" fill="#21262d" stroke="#30363d" stroke-width="1"/>
  <text x="977" y="428" fill="#e6edf3" font-size="12" text-anchor="middle">port_scan</text>

  <!-- ── Auth warning card ───────────────────────────────────────────────── -->
  <rect x="236" y="476" width="948" height="64" rx="6" fill="#d2992208" stroke="#d29922" stroke-width="1"/>
  <text x="252" y="498" fill="#d29922" font-size="13" font-weight="600">⚠ Authorized Use Only</text>
  <text x="252" y="520" fill="#8b949e" font-size="13">Kestrel is an authorized security operations platform. Use only on systems you own or are explicitly permitted to test.</text>
</svg>
